# xmcd
#
# Track frame offsets: 
#        150
#        10062
#        24115
#        36662
#        55278
#        71516
#        84132
#        99479
#        117235
#        128182
#
# Disc length: 1903 seconds
#
# Revision: 0
# Processed by: cddbd v1.5.2PL0 Copyright (c) Steve Scherf et al.
# Submitted via: ExactAudioCopy v0.99pb5
#
DISCID=77076d0a
DTITLE=Anne Murray - Greatest Hits
DYEAR=1980
DGENRE=Country
TTITLE0=01 Snowbird
TTITLE1=02 Danny's Song
TTITLE2=03 A Love Song
TTITLE3=04 You Won't See Me
TTITLE4=05 You Needed Me
TTITLE5=06 I Just Fall in Love Again
TTITLE6=07 Shadows in the Moonlight
TTITLE7=08 Broken Hearted Me
TTITLE8=09 Daydream Believer
TTITLE9=10 Could I Have This Dance
EXTD=
EXTT0=
EXTT1=
EXTT2=
EXTT3=
EXTT4=
EXTT5=
EXTT6=
EXTT7=
EXTT8=
EXTT9=
PLAYORDER=
